<?xml version="1.0" encoding="UTF-8" standalone="no"?>
<!DOCTYPE svg PUBLIC "-//W3C//DTD SVG 1.1//EN" "http://www.w3.org/Graphics/SVG/1.1/DTD/svg11.dtd">
<svg width="100%" height="100%" viewBox="0 0 733 73" version="1.1" xmlns="http://www.w3.org/2000/svg" xmlns:xlink="http://www.w3.org/1999/xlink" xml:space="preserve" xmlns:serif="http://www.serif.com/" style="fill-rule:evenodd;clip-rule:evenodd;stroke-linejoin:round;stroke-miterlimit:2;">
    <g transform="matrix(3.34808,0,0,1.22811,-2168.36,-16.3616)">
        <g id="Live_Text">
            <g>
                <g id="nunito-sans-extra-bold" serif:id="nunito sans extra bold">
                    <g transform="matrix(30.7591,0,0,83.8554,645.675,72.4407)">
                        <path d="M0.537,-0.366C0.578,-0.353 0.61,-0.332 0.632,-0.303C0.654,-0.273 0.665,-0.236 0.665,-0.193C0.665,-0.154 0.655,-0.121 0.634,-0.092C0.614,-0.063 0.585,-0.04 0.548,-0.024C0.51,-0.008 0.466,0 0.415,0L0.064,0L0.064,-0.705L0.405,-0.705C0.479,-0.705 0.538,-0.689 0.582,-0.656C0.625,-0.623 0.647,-0.578 0.647,-0.522C0.647,-0.486 0.637,-0.454 0.618,-0.427C0.599,-0.399 0.572,-0.379 0.537,-0.366ZM0.243,-0.428L0.374,-0.428C0.409,-0.428 0.434,-0.433 0.45,-0.444C0.466,-0.455 0.474,-0.472 0.474,-0.495C0.474,-0.52 0.466,-0.538 0.45,-0.549C0.434,-0.56 0.409,-0.566 0.374,-0.566L0.243,-0.566L0.243,-0.428ZM0.392,-0.139C0.429,-0.139 0.455,-0.145 0.47,-0.157C0.486,-0.168 0.494,-0.187 0.494,-0.214C0.494,-0.241 0.486,-0.26 0.47,-0.272C0.455,-0.283 0.429,-0.289 0.392,-0.289L0.243,-0.289L0.243,-0.139L0.392,-0.139Z" style="fill:rgb(52,58,64);fill-rule:nonzero;"/>
                    </g>
                    <g transform="matrix(30.7591,0,0,83.8554,667.053,72.4407)">
                        <path d="M0.698,0L0.496,0L0.374,-0.225C0.359,-0.251 0.334,-0.264 0.301,-0.264L0.245,-0.264L0.245,0L0.064,0L0.064,-0.705L0.4,-0.705C0.485,-0.705 0.55,-0.687 0.593,-0.65C0.635,-0.613 0.657,-0.559 0.657,-0.489C0.657,-0.436 0.642,-0.391 0.613,-0.354C0.584,-0.317 0.542,-0.292 0.489,-0.279C0.53,-0.27 0.562,-0.244 0.586,-0.2L0.698,0ZM0.371,-0.402C0.412,-0.402 0.441,-0.408 0.459,-0.421C0.476,-0.434 0.485,-0.454 0.485,-0.483C0.485,-0.512 0.476,-0.534 0.459,-0.547C0.441,-0.56 0.412,-0.566 0.371,-0.566L0.243,-0.566L0.243,-0.402L0.371,-0.402Z" style="fill:rgb(52,58,64);fill-rule:nonzero;"/>
                    </g>
                    <g transform="matrix(30.7591,0,0,83.8554,688.461,72.4407)">
                        <path d="M0.601,0L0.538,-0.146L0.226,-0.146L0.163,0L-0.022,0L0.307,-0.705L0.453,-0.705L0.783,0L0.601,0ZM0.285,-0.284L0.479,-0.284L0.382,-0.51L0.285,-0.284Z" style="fill:rgb(52,58,64);fill-rule:nonzero;"/>
                    </g>
                    <g transform="matrix(30.7591,0,0,83.8554,711.869,72.4407)">
                        <rect x="0.064" y="-0.705" width="0.184" height="0.705" style="fill:rgb(52,58,64);fill-rule:nonzero;"/>
                    </g>
                    <g transform="matrix(30.7591,0,0,83.8554,721.465,72.4407)">
                        <path d="M0.521,-0.705L0.693,-0.705L0.693,0L0.557,0L0.235,-0.403L0.235,0L0.064,0L0.064,-0.705L0.198,-0.705L0.521,-0.302L0.521,-0.705Z" style="fill:rgb(52,58,64);fill-rule:nonzero;"/>
                    </g>
                    <g transform="matrix(30.7591,0,0,83.8554,744.75,72.4407)">
                        <path d="M0.223,0L0.223,-0.556L0.012,-0.556L0.012,-0.705L0.62,-0.705L0.62,-0.556L0.409,-0.556L0.409,0L0.223,0Z" style="fill:rgb(52,58,64);fill-rule:nonzero;"/>
                    </g>
                    <g transform="matrix(30.7591,0,0,83.8554,761.36,72.4407)">
                        <path d="M0.601,0L0.538,-0.146L0.226,-0.146L0.163,0L-0.022,0L0.307,-0.705L0.453,-0.705L0.783,0L0.601,0ZM0.285,-0.284L0.479,-0.284L0.382,-0.51L0.285,-0.284Z" style="fill:rgb(52,58,64);fill-rule:nonzero;"/>
                    </g>
                    <g transform="matrix(30.7591,0,0,83.8554,784.768,72.4407)">
                        <path d="M0.064,-0.705L0.405,-0.705C0.483,-0.705 0.544,-0.685 0.587,-0.646C0.63,-0.606 0.652,-0.551 0.652,-0.48C0.652,-0.41 0.63,-0.355 0.587,-0.315C0.543,-0.275 0.482,-0.255 0.405,-0.255L0.248,-0.255L0.248,0L0.064,0L0.064,-0.705ZM0.38,-0.393C0.414,-0.393 0.439,-0.4 0.456,-0.414C0.472,-0.428 0.48,-0.45 0.48,-0.479C0.48,-0.508 0.472,-0.53 0.456,-0.545C0.439,-0.559 0.414,-0.566 0.38,-0.566L0.248,-0.566L0.248,-0.393L0.38,-0.393Z" style="fill:rgb(52,58,64);fill-rule:nonzero;"/>
                    </g>
                    <g transform="matrix(30.7591,0,0,83.8554,805.592,72.4407)">
                        <path d="M0.064,-0.705L0.405,-0.705C0.483,-0.705 0.544,-0.685 0.587,-0.646C0.63,-0.606 0.652,-0.551 0.652,-0.48C0.652,-0.41 0.63,-0.355 0.587,-0.315C0.543,-0.275 0.482,-0.255 0.405,-0.255L0.248,-0.255L0.248,0L0.064,0L0.064,-0.705ZM0.38,-0.393C0.414,-0.393 0.439,-0.4 0.456,-0.414C0.472,-0.428 0.48,-0.45 0.48,-0.479C0.48,-0.508 0.472,-0.53 0.456,-0.545C0.439,-0.559 0.414,-0.566 0.38,-0.566L0.248,-0.566L0.248,-0.393L0.38,-0.393Z" style="fill:rgb(52,58,64);fill-rule:nonzero;"/>
                    </g>
                    <g transform="matrix(30.7591,0,0,83.8554,826.415,72.4407)">
                        <path d="M0.064,0L0.064,-0.705L0.565,-0.705L0.565,-0.563L0.243,-0.563L0.243,-0.429L0.545,-0.429L0.545,-0.288L0.243,-0.288L0.243,-0.142L0.565,-0.142L0.565,0L0.064,0Z" style="fill:rgb(52,58,64);fill-rule:nonzero;"/>
                    </g>
                    <g transform="matrix(30.7591,0,0,83.8554,844.779,72.4407)">
                        <path d="M0.698,0L0.496,0L0.374,-0.225C0.359,-0.251 0.334,-0.264 0.301,-0.264L0.245,-0.264L0.245,0L0.064,0L0.064,-0.705L0.4,-0.705C0.485,-0.705 0.55,-0.687 0.593,-0.65C0.635,-0.613 0.657,-0.559 0.657,-0.489C0.657,-0.436 0.642,-0.391 0.613,-0.354C0.584,-0.317 0.542,-0.292 0.489,-0.279C0.53,-0.27 0.562,-0.244 0.586,-0.2L0.698,0ZM0.371,-0.402C0.412,-0.402 0.441,-0.408 0.459,-0.421C0.476,-0.434 0.485,-0.454 0.485,-0.483C0.485,-0.512 0.476,-0.534 0.459,-0.547C0.441,-0.56 0.412,-0.566 0.371,-0.566L0.243,-0.566L0.243,-0.402L0.371,-0.402Z" style="fill:rgb(52,58,64);fill-rule:nonzero;"/>
                    </g>
                </g>
            </g>
        </g>
    </g>
</svg>
