<?xml version="1.0" encoding="UTF-8" standalone="no"?>
<!DOCTYPE svg PUBLIC "-//W3C//DTD SVG 1.1//EN" "http://www.w3.org/Graphics/SVG/1.1/DTD/svg11.dtd">
<svg width="100%" height="100%" viewBox="0 0 175 175" version="1.1" xmlns="http://www.w3.org/2000/svg" xmlns:xlink="http://www.w3.org/1999/xlink" xml:space="preserve" xmlns:serif="http://www.serif.com/" style="fill-rule:evenodd;clip-rule:evenodd;stroke-linejoin:round;stroke-miterlimit:2;">
    <g id="Outlines" transform="matrix(1,0,0,1,-210.486,1.049)">
        <g>
            <g transform="matrix(1,0,0,1,241.127,7.05203)">
                <path d="M30.359,105.372L22.695,105.372L22.695,132.493C25.136,132.662 27.697,132.818 30.359,132.959L30.359,105.372Z" style="fill:rgb(253,126,20);fill-rule:nonzero;"/>
            </g>
            <g transform="matrix(1,0,0,1,243.571,7.05203)">
                <path d="M38.025,133.295L38.025,101.27L38.025,93.557L30.359,93.557L30.359,132.988C32.832,133.107 35.383,133.209 38.025,133.295Z" style="fill:rgb(253,126,20);fill-rule:nonzero;"/>
            </g>
            <g transform="matrix(1,0,0,1,246.015,7.05203)">
                <path d="M45.691,133.501L45.691,99.286L38.025,99.286L38.025,133.296C40.51,133.383 43.072,133.452 45.691,133.501Z" style="fill:rgb(253,126,20);fill-rule:nonzero;"/>
            </g>
            <g transform="matrix(1,0,0,1,248.459,7.05203)">
                <path d="M53.357,133.58L53.357,89.315L45.691,89.315L45.691,133.484C48.191,133.542 50.746,133.575 53.357,133.58Z" style="fill:rgb(253,126,20);fill-rule:nonzero;"/>
            </g>
            <g transform="matrix(1,0,0,1,243.239,7.05203)">
                <path d="M68.691,133.274L68.691,99.976L61.021,99.976L61.021,133.52C63.65,133.466 66.207,133.381 68.691,133.274Z" style="fill:rgb(253,126,20);fill-rule:nonzero;"/>
            </g>
            <g transform="matrix(1,0,0,1,245.683,7.05203)">
                <path d="M76.357,132.965L76.357,106.918L76.357,94.13L68.691,94.13L68.691,133.329C71.334,133.227 73.893,133.107 76.357,132.965Z" style="fill:rgb(253,126,20);fill-rule:nonzero;"/>
            </g>
            <g transform="matrix(1,0,0,1,248.127,7.05203)">
                <path d="M84.023,132.527L84.023,107.934L76.357,107.934L76.357,133.006C79.023,132.863 81.586,132.702 84.023,132.527Z" style="fill:rgb(253,126,20);fill-rule:nonzero;"/>
            </g>
        </g>
        <g transform="matrix(1,0,0,1,210.486,-1.049)">
            <path d="M88.536,3.44C88.487,3.183 88.384,2.809 88.259,2.526C88.232,2.492 88.208,2.456 88.189,2.42C88.175,2.412 88.162,2.405 88.152,2.394C88.082,2.33 88.004,2.258 87.92,2.202C87.719,2.111 87.5,2.1 87.284,2.101C86.835,2.222 86.581,2.113 86.214,3.045C79.897,54.415 34.895,84.479 34.895,120.294C34.895,149.347 58.446,172.899 87.499,172.899C116.552,172.899 140.104,149.346 140.104,120.294C140.104,83.894 101.889,62.872 88.536,3.44ZM44.29,124.951C44.197,123.796 44.15,122.628 44.15,121.45C44.15,97.524 63.574,78.1 87.5,78.1C111.426,78.1 130.85,97.524 130.85,121.45C130.85,122.479 130.814,123.5 130.743,124.512C116.534,128.561 101.72,130.685 86.743,130.685C72.311,130.685 58.028,128.718 44.29,124.951Z" style="fill:rgb(52,58,64);fill-rule:nonzero;"/>
        </g>
    </g>
</svg>
