<?xml version="1.0" encoding="UTF-8" standalone="no"?>
<!DOCTYPE svg PUBLIC "-//W3C//DTD SVG 1.1//EN" "http://www.w3.org/Graphics/SVG/1.1/DTD/svg11.dtd">
<svg width="100%" height="100%" viewBox="0 0 750 175" version="1.1" xmlns="http://www.w3.org/2000/svg" xmlns:xlink="http://www.w3.org/1999/xlink" xml:space="preserve" xmlns:serif="http://www.serif.com/" style="fill-rule:evenodd;clip-rule:evenodd;stroke-linejoin:round;stroke-miterlimit:2;">
    <g transform="matrix(1,0,0,1,-233.648,1.049)">
        <g id="Outlines">
            <g>
                <g>
                    <g transform="matrix(1,0,0,1,241.127,7.05203)">
                        <path d="M30.359,105.372L22.695,105.372L22.695,132.493C25.136,132.662 27.697,132.818 30.359,132.959L30.359,105.372Z" style="fill:rgb(253,126,20);fill-rule:nonzero;"/>
                    </g>
                    <g transform="matrix(1,0,0,1,243.571,7.05203)">
                        <path d="M38.025,133.295L38.025,101.27L38.025,93.557L30.359,93.557L30.359,132.988C32.832,133.107 35.383,133.209 38.025,133.295Z" style="fill:rgb(253,126,20);fill-rule:nonzero;"/>
                    </g>
                    <g transform="matrix(1,0,0,1,246.015,7.05203)">
                        <path d="M45.691,133.501L45.691,99.286L38.025,99.286L38.025,133.296C40.51,133.383 43.072,133.452 45.691,133.501Z" style="fill:rgb(253,126,20);fill-rule:nonzero;"/>
                    </g>
                    <g transform="matrix(1,0,0,1,248.459,7.05203)">
                        <path d="M53.357,133.58L53.357,89.315L45.691,89.315L45.691,133.484C48.191,133.542 50.746,133.575 53.357,133.58Z" style="fill:rgb(253,126,20);fill-rule:nonzero;"/>
                    </g>
                    <g transform="matrix(1,0,0,1,243.239,7.05203)">
                        <path d="M68.691,133.274L68.691,99.976L61.021,99.976L61.021,133.52C63.65,133.466 66.207,133.381 68.691,133.274Z" style="fill:rgb(253,126,20);fill-rule:nonzero;"/>
                    </g>
                    <g transform="matrix(1,0,0,1,245.683,7.05203)">
                        <path d="M76.357,132.965L76.357,106.918L76.357,94.13L68.691,94.13L68.691,133.329C71.334,133.227 73.893,133.107 76.357,132.965Z" style="fill:rgb(253,126,20);fill-rule:nonzero;"/>
                    </g>
                    <g transform="matrix(1,0,0,1,248.127,7.05203)">
                        <path d="M84.023,132.527L84.023,107.934L76.357,107.934L76.357,133.006C79.023,132.863 81.586,132.702 84.023,132.527Z" style="fill:rgb(253,126,20);fill-rule:nonzero;"/>
                    </g>
                </g>
                <g transform="matrix(1,0,0,1,210.486,-1.049)">
                    <path d="M88.536,3.44C88.487,3.183 88.384,2.809 88.259,2.526C88.232,2.492 88.208,2.456 88.189,2.42C88.175,2.412 88.162,2.405 88.152,2.394C88.082,2.33 88.004,2.258 87.92,2.202C87.719,2.111 87.5,2.1 87.284,2.101C86.835,2.222 86.581,2.113 86.214,3.045C79.897,54.415 34.895,84.479 34.895,120.294C34.895,149.347 58.446,172.899 87.499,172.899C116.552,172.899 140.104,149.346 140.104,120.294C140.104,83.894 101.889,62.872 88.536,3.44ZM44.29,124.951C44.197,123.796 44.15,122.628 44.15,121.45C44.15,97.524 63.574,78.1 87.5,78.1C111.426,78.1 130.85,97.524 130.85,121.45C130.85,122.479 130.814,123.5 130.743,124.512C116.534,128.561 101.72,130.685 86.743,130.685C72.311,130.685 58.028,128.718 44.29,124.951Z" style="fill:rgb(52,58,64);fill-rule:nonzero;"/>
                </g>
            </g>
        </g>
    </g>
    <g id="Live_Text" transform="matrix(1,0,0,1,1011.63,-6.26529)">
        <g id="nunito-sans-extra-bold" serif:id="nunito sans extra bold" transform="matrix(2.60086,0,0,0.954023,-2547.26,56.8778)">
            <g transform="matrix(30.7591,0,0,83.8554,645.675,72.4407)">
                <path d="M0.537,-0.366C0.578,-0.353 0.61,-0.332 0.632,-0.303C0.654,-0.273 0.665,-0.236 0.665,-0.193C0.665,-0.154 0.655,-0.121 0.634,-0.092C0.614,-0.063 0.585,-0.04 0.548,-0.024C0.51,-0.008 0.466,0 0.415,0L0.064,0L0.064,-0.705L0.405,-0.705C0.479,-0.705 0.538,-0.689 0.582,-0.656C0.625,-0.623 0.647,-0.578 0.647,-0.522C0.647,-0.486 0.637,-0.454 0.618,-0.427C0.599,-0.399 0.572,-0.379 0.537,-0.366ZM0.243,-0.428L0.374,-0.428C0.409,-0.428 0.434,-0.433 0.45,-0.444C0.466,-0.455 0.474,-0.472 0.474,-0.495C0.474,-0.52 0.466,-0.538 0.45,-0.549C0.434,-0.56 0.409,-0.566 0.374,-0.566L0.243,-0.566L0.243,-0.428ZM0.392,-0.139C0.429,-0.139 0.455,-0.145 0.47,-0.157C0.486,-0.168 0.494,-0.187 0.494,-0.214C0.494,-0.241 0.486,-0.26 0.47,-0.272C0.455,-0.283 0.429,-0.289 0.392,-0.289L0.243,-0.289L0.243,-0.139L0.392,-0.139Z" style="fill:rgb(52,58,64);fill-rule:nonzero;"/>
            </g>
            <g transform="matrix(30.7591,0,0,83.8554,667.053,72.4407)">
                <path d="M0.698,0L0.496,0L0.374,-0.225C0.359,-0.251 0.334,-0.264 0.301,-0.264L0.245,-0.264L0.245,0L0.064,0L0.064,-0.705L0.4,-0.705C0.485,-0.705 0.55,-0.687 0.593,-0.65C0.635,-0.613 0.657,-0.559 0.657,-0.489C0.657,-0.436 0.642,-0.391 0.613,-0.354C0.584,-0.317 0.542,-0.292 0.489,-0.279C0.53,-0.27 0.562,-0.244 0.586,-0.2L0.698,0ZM0.371,-0.402C0.412,-0.402 0.441,-0.408 0.459,-0.421C0.476,-0.434 0.485,-0.454 0.485,-0.483C0.485,-0.512 0.476,-0.534 0.459,-0.547C0.441,-0.56 0.412,-0.566 0.371,-0.566L0.243,-0.566L0.243,-0.402L0.371,-0.402Z" style="fill:rgb(52,58,64);fill-rule:nonzero;"/>
            </g>
            <g transform="matrix(30.7591,0,0,83.8554,688.461,72.4407)">
                <path d="M0.601,0L0.538,-0.146L0.226,-0.146L0.163,0L-0.022,0L0.307,-0.705L0.453,-0.705L0.783,0L0.601,0ZM0.285,-0.284L0.479,-0.284L0.382,-0.51L0.285,-0.284Z" style="fill:rgb(52,58,64);fill-rule:nonzero;"/>
            </g>
            <g transform="matrix(30.7591,0,0,83.8554,711.869,72.4407)">
                <rect x="0.064" y="-0.705" width="0.184" height="0.705" style="fill:rgb(52,58,64);fill-rule:nonzero;"/>
            </g>
            <g transform="matrix(30.7591,0,0,83.8554,721.465,72.4407)">
                <path d="M0.521,-0.705L0.693,-0.705L0.693,0L0.557,0L0.235,-0.403L0.235,0L0.064,0L0.064,-0.705L0.198,-0.705L0.521,-0.302L0.521,-0.705Z" style="fill:rgb(52,58,64);fill-rule:nonzero;"/>
            </g>
            <g transform="matrix(30.7591,0,0,83.8554,744.75,72.4407)">
                <path d="M0.223,0L0.223,-0.556L0.012,-0.556L0.012,-0.705L0.62,-0.705L0.62,-0.556L0.409,-0.556L0.409,0L0.223,0Z" style="fill:rgb(52,58,64);fill-rule:nonzero;"/>
            </g>
            <g transform="matrix(30.7591,0,0,83.8554,761.36,72.4407)">
                <path d="M0.601,0L0.538,-0.146L0.226,-0.146L0.163,0L-0.022,0L0.307,-0.705L0.453,-0.705L0.783,0L0.601,0ZM0.285,-0.284L0.479,-0.284L0.382,-0.51L0.285,-0.284Z" style="fill:rgb(52,58,64);fill-rule:nonzero;"/>
            </g>
            <g transform="matrix(30.7591,0,0,83.8554,784.768,72.4407)">
                <path d="M0.064,-0.705L0.405,-0.705C0.483,-0.705 0.544,-0.685 0.587,-0.646C0.63,-0.606 0.652,-0.551 0.652,-0.48C0.652,-0.41 0.63,-0.355 0.587,-0.315C0.543,-0.275 0.482,-0.255 0.405,-0.255L0.248,-0.255L0.248,0L0.064,0L0.064,-0.705ZM0.38,-0.393C0.414,-0.393 0.439,-0.4 0.456,-0.414C0.472,-0.428 0.48,-0.45 0.48,-0.479C0.48,-0.508 0.472,-0.53 0.456,-0.545C0.439,-0.559 0.414,-0.566 0.38,-0.566L0.248,-0.566L0.248,-0.393L0.38,-0.393Z" style="fill:rgb(52,58,64);fill-rule:nonzero;"/>
            </g>
            <g transform="matrix(30.7591,0,0,83.8554,805.592,72.4407)">
                <path d="M0.064,-0.705L0.405,-0.705C0.483,-0.705 0.544,-0.685 0.587,-0.646C0.63,-0.606 0.652,-0.551 0.652,-0.48C0.652,-0.41 0.63,-0.355 0.587,-0.315C0.543,-0.275 0.482,-0.255 0.405,-0.255L0.248,-0.255L0.248,0L0.064,0L0.064,-0.705ZM0.38,-0.393C0.414,-0.393 0.439,-0.4 0.456,-0.414C0.472,-0.428 0.48,-0.45 0.48,-0.479C0.48,-0.508 0.472,-0.53 0.456,-0.545C0.439,-0.559 0.414,-0.566 0.38,-0.566L0.248,-0.566L0.248,-0.393L0.38,-0.393Z" style="fill:rgb(52,58,64);fill-rule:nonzero;"/>
            </g>
            <g transform="matrix(30.7591,0,0,83.8554,826.415,72.4407)">
                <path d="M0.064,0L0.064,-0.705L0.565,-0.705L0.565,-0.563L0.243,-0.563L0.243,-0.429L0.545,-0.429L0.545,-0.288L0.243,-0.288L0.243,-0.142L0.565,-0.142L0.565,0L0.064,0Z" style="fill:rgb(52,58,64);fill-rule:nonzero;"/>
            </g>
            <g transform="matrix(30.7591,0,0,83.8554,844.779,72.4407)">
                <path d="M0.698,0L0.496,0L0.374,-0.225C0.359,-0.251 0.334,-0.264 0.301,-0.264L0.245,-0.264L0.245,0L0.064,0L0.064,-0.705L0.4,-0.705C0.485,-0.705 0.55,-0.687 0.593,-0.65C0.635,-0.613 0.657,-0.559 0.657,-0.489C0.657,-0.436 0.642,-0.391 0.613,-0.354C0.584,-0.317 0.542,-0.292 0.489,-0.279C0.53,-0.27 0.562,-0.244 0.586,-0.2L0.698,0ZM0.371,-0.402C0.412,-0.402 0.441,-0.408 0.459,-0.421C0.476,-0.434 0.485,-0.454 0.485,-0.483C0.485,-0.512 0.476,-0.534 0.459,-0.547C0.441,-0.56 0.412,-0.566 0.371,-0.566L0.243,-0.566L0.243,-0.402L0.371,-0.402Z" style="fill:rgb(52,58,64);fill-rule:nonzero;"/>
            </g>
        </g>
        <g id="nunito-sans-light" serif:id="nunito sans light" transform="matrix(1.71333,0,0,1,-1246.28,3.99969)">
            <g transform="matrix(23.3463,0,0,40,221.675,162.523)">
                <path d="M0.615,0L0.532,0L0.153,-0.337L0.153,0L0.091,0L0.091,-0.705L0.153,-0.705L0.153,-0.378L0.513,-0.705L0.594,-0.705L0.213,-0.361L0.615,0Z" style="fill:rgb(52,58,64);fill-rule:nonzero;"/>
            </g>
            <g transform="matrix(23.3463,0,0,40,235.286,162.523)">
                <path d="M0.307,-0.497C0.424,-0.497 0.482,-0.434 0.482,-0.309L0.482,0L0.421,0L0.421,-0.305C0.421,-0.353 0.411,-0.388 0.392,-0.41C0.373,-0.432 0.342,-0.443 0.3,-0.443C0.252,-0.443 0.214,-0.428 0.185,-0.399C0.156,-0.37 0.141,-0.33 0.141,-0.281L0.141,0L0.08,0L0.08,-0.485L0.14,-0.485L0.14,-0.402C0.155,-0.433 0.178,-0.456 0.206,-0.472C0.235,-0.489 0.269,-0.497 0.307,-0.497Z" style="fill:rgb(52,58,64);fill-rule:nonzero;"/>
            </g>
            <g transform="matrix(23.3463,0,0,40,247.683,162.523)">
                <path d="M0.273,0.007C0.228,0.007 0.189,-0.003 0.156,-0.024C0.122,-0.045 0.096,-0.074 0.077,-0.112C0.058,-0.15 0.049,-0.194 0.049,-0.245C0.049,-0.296 0.058,-0.34 0.077,-0.378C0.096,-0.416 0.122,-0.445 0.156,-0.466C0.189,-0.487 0.228,-0.497 0.273,-0.497C0.317,-0.497 0.356,-0.487 0.39,-0.466C0.424,-0.445 0.45,-0.416 0.469,-0.378C0.487,-0.34 0.496,-0.296 0.496,-0.245C0.496,-0.194 0.487,-0.15 0.469,-0.112C0.45,-0.074 0.424,-0.045 0.39,-0.024C0.356,-0.003 0.317,0.007 0.273,0.007ZM0.272,-0.047C0.323,-0.047 0.363,-0.064 0.391,-0.098C0.419,-0.132 0.433,-0.181 0.433,-0.245C0.433,-0.308 0.419,-0.357 0.391,-0.392C0.362,-0.427 0.323,-0.444 0.273,-0.444C0.222,-0.444 0.183,-0.427 0.155,-0.392C0.127,-0.357 0.113,-0.308 0.113,-0.245C0.113,-0.181 0.127,-0.132 0.154,-0.098C0.181,-0.064 0.221,-0.047 0.272,-0.047Z" style="fill:rgb(52,58,64);fill-rule:nonzero;"/>
            </g>
            <g transform="matrix(23.3463,0,0,40,259.589,162.523)">
                <path d="M0.741,-0.485L0.804,-0.485L0.627,0L0.564,0L0.418,-0.406L0.271,0L0.208,0L0.032,-0.485L0.097,-0.485L0.241,-0.072L0.39,-0.485L0.45,-0.485L0.596,-0.072L0.741,-0.485Z" style="fill:rgb(52,58,64);fill-rule:nonzero;"/>
            </g>
            <g transform="matrix(23.3463,0,0,40,278.407,162.523)">
                <rect x="0.08" y="-0.705" width="0.061" height="0.705" style="fill:rgb(52,58,64);fill-rule:nonzero;"/>
            </g>
            <g transform="matrix(23.3463,0,0,40,282.889,162.523)">
                <path d="M0.479,-0.235L0.112,-0.235C0.114,-0.174 0.13,-0.128 0.16,-0.096C0.19,-0.063 0.233,-0.047 0.288,-0.047C0.347,-0.047 0.4,-0.067 0.447,-0.107L0.471,-0.059C0.45,-0.039 0.423,-0.023 0.39,-0.011C0.357,0.001 0.323,0.007 0.288,0.007C0.214,0.007 0.156,-0.015 0.113,-0.06C0.07,-0.105 0.049,-0.166 0.049,-0.244C0.049,-0.294 0.059,-0.338 0.078,-0.377C0.097,-0.415 0.123,-0.445 0.158,-0.466C0.192,-0.487 0.231,-0.497 0.276,-0.497C0.339,-0.497 0.389,-0.476 0.425,-0.435C0.461,-0.394 0.479,-0.336 0.479,-0.262L0.479,-0.235ZM0.276,-0.447C0.229,-0.447 0.192,-0.432 0.164,-0.403C0.136,-0.374 0.119,-0.333 0.114,-0.28L0.423,-0.28C0.422,-0.333 0.408,-0.375 0.383,-0.404C0.358,-0.433 0.322,-0.447 0.276,-0.447Z" style="fill:rgb(52,58,64);fill-rule:nonzero;"/>
            </g>
            <g transform="matrix(23.3463,0,0,40,294.469,162.523)">
                <path d="M0.493,-0.705L0.493,0L0.432,0L0.432,-0.093C0.417,-0.06 0.396,-0.035 0.367,-0.019C0.338,-0.002 0.304,0.007 0.265,0.007C0.222,0.007 0.185,-0.004 0.152,-0.025C0.119,-0.046 0.094,-0.075 0.076,-0.114C0.058,-0.152 0.049,-0.196 0.049,-0.247C0.049,-0.297 0.058,-0.341 0.076,-0.379C0.094,-0.416 0.119,-0.445 0.152,-0.466C0.185,-0.487 0.222,-0.497 0.265,-0.497C0.304,-0.497 0.338,-0.489 0.367,-0.471C0.396,-0.455 0.417,-0.43 0.432,-0.397L0.432,-0.705L0.493,-0.705ZM0.273,-0.047C0.324,-0.047 0.363,-0.064 0.391,-0.099C0.418,-0.133 0.432,-0.182 0.432,-0.245C0.432,-0.308 0.418,-0.357 0.391,-0.392C0.364,-0.427 0.325,-0.444 0.274,-0.444C0.223,-0.444 0.183,-0.427 0.155,-0.393C0.127,-0.358 0.113,-0.31 0.113,-0.247C0.113,-0.184 0.127,-0.135 0.155,-0.1C0.183,-0.065 0.222,-0.047 0.273,-0.047Z" style="fill:rgb(52,58,64);fill-rule:nonzero;"/>
            </g>
            <g transform="matrix(23.3463,0,0,40,307.146,162.523)">
                <path d="M0.497,-0.485L0.497,-0.028C0.497,0.043 0.48,0.096 0.445,0.132C0.409,0.169 0.358,0.187 0.289,0.187C0.208,0.187 0.138,0.165 0.079,0.12L0.103,0.072C0.136,0.095 0.166,0.11 0.194,0.119C0.221,0.128 0.253,0.133 0.29,0.133C0.339,0.133 0.375,0.12 0.4,0.094C0.425,0.068 0.437,0.029 0.437,-0.022L0.437,-0.117C0.423,-0.084 0.402,-0.059 0.373,-0.042C0.344,-0.024 0.308,-0.015 0.267,-0.015C0.224,-0.015 0.187,-0.025 0.154,-0.045C0.121,-0.065 0.095,-0.093 0.077,-0.13C0.058,-0.167 0.049,-0.209 0.049,-0.256C0.049,-0.303 0.058,-0.345 0.077,-0.382C0.095,-0.419 0.121,-0.447 0.154,-0.467C0.187,-0.487 0.224,-0.497 0.267,-0.497C0.308,-0.497 0.342,-0.489 0.371,-0.471C0.4,-0.455 0.421,-0.43 0.436,-0.397L0.436,-0.485L0.497,-0.485ZM0.275,-0.069C0.326,-0.069 0.365,-0.086 0.394,-0.119C0.422,-0.152 0.436,-0.198 0.436,-0.256C0.436,-0.314 0.422,-0.36 0.393,-0.394C0.364,-0.427 0.325,-0.444 0.275,-0.444C0.224,-0.444 0.185,-0.427 0.156,-0.394C0.127,-0.361 0.113,-0.315 0.113,-0.256C0.113,-0.197 0.127,-0.152 0.156,-0.118C0.185,-0.086 0.224,-0.069 0.275,-0.069Z" style="fill:rgb(52,58,64);fill-rule:nonzero;"/>
            </g>
            <g transform="matrix(23.3463,0,0,40,319.916,162.523)">
                <path d="M0.479,-0.235L0.112,-0.235C0.114,-0.174 0.13,-0.128 0.16,-0.096C0.19,-0.063 0.233,-0.047 0.288,-0.047C0.347,-0.047 0.4,-0.067 0.447,-0.107L0.471,-0.059C0.45,-0.039 0.423,-0.023 0.39,-0.011C0.357,0.001 0.323,0.007 0.288,0.007C0.214,0.007 0.156,-0.015 0.113,-0.06C0.07,-0.105 0.049,-0.166 0.049,-0.244C0.049,-0.294 0.059,-0.338 0.078,-0.377C0.097,-0.415 0.123,-0.445 0.158,-0.466C0.192,-0.487 0.231,-0.497 0.276,-0.497C0.339,-0.497 0.389,-0.476 0.425,-0.435C0.461,-0.394 0.479,-0.336 0.479,-0.262L0.479,-0.235ZM0.276,-0.447C0.229,-0.447 0.192,-0.432 0.164,-0.403C0.136,-0.374 0.119,-0.333 0.114,-0.28L0.423,-0.28C0.422,-0.333 0.408,-0.375 0.383,-0.404C0.358,-0.433 0.322,-0.447 0.276,-0.447Z" style="fill:rgb(52,58,64);fill-rule:nonzero;"/>
            </g>
            <g transform="matrix(23.3463,0,0,40,336.679,162.523)">
                <path d="M0.31,0.008C0.255,0.008 0.206,0 0.163,-0.015C0.12,-0.029 0.082,-0.053 0.049,-0.084L0.075,-0.133C0.11,-0.102 0.146,-0.08 0.182,-0.067C0.217,-0.054 0.26,-0.047 0.31,-0.047C0.369,-0.047 0.416,-0.059 0.449,-0.084C0.482,-0.108 0.498,-0.142 0.498,-0.186C0.498,-0.212 0.49,-0.233 0.474,-0.25C0.458,-0.266 0.438,-0.279 0.413,-0.288C0.388,-0.297 0.355,-0.306 0.314,-0.315C0.259,-0.327 0.215,-0.339 0.182,-0.352C0.148,-0.365 0.119,-0.384 0.096,-0.409C0.073,-0.435 0.061,-0.47 0.061,-0.513C0.061,-0.553 0.071,-0.588 0.092,-0.618C0.113,-0.648 0.142,-0.671 0.18,-0.688C0.217,-0.705 0.261,-0.713 0.312,-0.713C0.36,-0.713 0.405,-0.705 0.446,-0.69C0.487,-0.674 0.522,-0.651 0.552,-0.621L0.526,-0.572C0.493,-0.602 0.459,-0.624 0.425,-0.637C0.391,-0.651 0.353,-0.658 0.312,-0.658C0.253,-0.658 0.206,-0.645 0.173,-0.62C0.14,-0.595 0.123,-0.559 0.123,-0.514C0.123,-0.475 0.138,-0.446 0.167,-0.427C0.196,-0.407 0.238,-0.391 0.294,-0.378L0.32,-0.372C0.374,-0.359 0.417,-0.346 0.448,-0.335C0.479,-0.324 0.506,-0.306 0.528,-0.282C0.549,-0.259 0.56,-0.227 0.56,-0.187C0.56,-0.148 0.55,-0.114 0.529,-0.085C0.508,-0.056 0.479,-0.033 0.442,-0.017C0.404,0 0.36,0.008 0.31,0.008Z" style="fill:rgb(52,58,64);fill-rule:nonzero;"/>
            </g>
            <g transform="matrix(23.3463,0,0,40,350.15,162.523)">
                <path d="M0.273,0.007C0.228,0.007 0.189,-0.003 0.156,-0.024C0.122,-0.045 0.096,-0.074 0.077,-0.112C0.058,-0.15 0.049,-0.194 0.049,-0.245C0.049,-0.296 0.058,-0.34 0.077,-0.378C0.096,-0.416 0.122,-0.445 0.156,-0.466C0.189,-0.487 0.228,-0.497 0.273,-0.497C0.317,-0.497 0.356,-0.487 0.39,-0.466C0.424,-0.445 0.45,-0.416 0.469,-0.378C0.487,-0.34 0.496,-0.296 0.496,-0.245C0.496,-0.194 0.487,-0.15 0.469,-0.112C0.45,-0.074 0.424,-0.045 0.39,-0.024C0.356,-0.003 0.317,0.007 0.273,0.007ZM0.272,-0.047C0.323,-0.047 0.363,-0.064 0.391,-0.098C0.419,-0.132 0.433,-0.181 0.433,-0.245C0.433,-0.308 0.419,-0.357 0.391,-0.392C0.362,-0.427 0.323,-0.444 0.273,-0.444C0.222,-0.444 0.183,-0.427 0.155,-0.392C0.127,-0.357 0.113,-0.308 0.113,-0.245C0.113,-0.181 0.127,-0.132 0.154,-0.098C0.181,-0.064 0.221,-0.047 0.272,-0.047Z" style="fill:rgb(52,58,64);fill-rule:nonzero;"/>
            </g>
            <g transform="matrix(23.3463,0,0,40,362.173,162.523)">
                <rect x="0.08" y="-0.705" width="0.061" height="0.705" style="fill:rgb(52,58,64);fill-rule:nonzero;"/>
            </g>
            <g transform="matrix(23.3463,0,0,40,366.656,162.523)">
                <path d="M0.473,-0.485L0.473,0L0.413,0L0.413,-0.087C0.398,-0.056 0.376,-0.033 0.347,-0.017C0.319,-0.001 0.287,0.007 0.251,0.007C0.194,0.007 0.151,-0.009 0.122,-0.041C0.093,-0.072 0.078,-0.119 0.078,-0.181L0.078,-0.485L0.139,-0.485L0.139,-0.185C0.139,-0.138 0.149,-0.103 0.168,-0.081C0.187,-0.058 0.216,-0.047 0.257,-0.047C0.304,-0.047 0.341,-0.062 0.37,-0.092C0.398,-0.121 0.412,-0.161 0.412,-0.21L0.412,-0.485L0.473,-0.485Z" style="fill:rgb(52,58,64);fill-rule:nonzero;"/>
            </g>
            <g transform="matrix(23.3463,0,0,40,378.866,162.523)">
                <path d="M0.277,-0.045C0.292,-0.045 0.306,-0.046 0.32,-0.048L0.317,0.003C0.302,0.005 0.287,0.006 0.27,0.006C0.215,0.006 0.174,-0.009 0.146,-0.039C0.118,-0.068 0.104,-0.109 0.104,-0.16L0.104,-0.436L0.008,-0.436L0.008,-0.485L0.104,-0.485L0.104,-0.635L0.165,-0.635L0.165,-0.485L0.307,-0.485L0.307,-0.436L0.165,-0.436L0.165,-0.168C0.165,-0.127 0.174,-0.097 0.194,-0.076C0.213,-0.055 0.24,-0.045 0.277,-0.045Z" style="fill:rgb(52,58,64);fill-rule:nonzero;"/>
            </g>
            <g transform="matrix(23.3463,0,0,40,385.8,162.523)">
                <path d="M0.08,0L0.08,-0.485L0.141,-0.485L0.141,0L0.08,0ZM0.071,-0.69L0.151,-0.69L0.151,-0.613L0.071,-0.613L0.071,-0.69Z" style="fill:rgb(52,58,64);fill-rule:nonzero;"/>
            </g>
            <g transform="matrix(23.3463,0,0,40,390.282,162.523)">
                <path d="M0.273,0.007C0.228,0.007 0.189,-0.003 0.156,-0.024C0.122,-0.045 0.096,-0.074 0.077,-0.112C0.058,-0.15 0.049,-0.194 0.049,-0.245C0.049,-0.296 0.058,-0.34 0.077,-0.378C0.096,-0.416 0.122,-0.445 0.156,-0.466C0.189,-0.487 0.228,-0.497 0.273,-0.497C0.317,-0.497 0.356,-0.487 0.39,-0.466C0.424,-0.445 0.45,-0.416 0.469,-0.378C0.487,-0.34 0.496,-0.296 0.496,-0.245C0.496,-0.194 0.487,-0.15 0.469,-0.112C0.45,-0.074 0.424,-0.045 0.39,-0.024C0.356,-0.003 0.317,0.007 0.273,0.007ZM0.272,-0.047C0.323,-0.047 0.363,-0.064 0.391,-0.098C0.419,-0.132 0.433,-0.181 0.433,-0.245C0.433,-0.308 0.419,-0.357 0.391,-0.392C0.362,-0.427 0.323,-0.444 0.273,-0.444C0.222,-0.444 0.183,-0.427 0.155,-0.392C0.127,-0.357 0.113,-0.308 0.113,-0.245C0.113,-0.181 0.127,-0.132 0.154,-0.098C0.181,-0.064 0.221,-0.047 0.272,-0.047Z" style="fill:rgb(52,58,64);fill-rule:nonzero;"/>
            </g>
            <g transform="matrix(23.3463,0,0,40,402.305,162.523)">
                <path d="M0.307,-0.497C0.424,-0.497 0.482,-0.434 0.482,-0.309L0.482,0L0.421,0L0.421,-0.305C0.421,-0.353 0.411,-0.388 0.392,-0.41C0.373,-0.432 0.342,-0.443 0.3,-0.443C0.252,-0.443 0.214,-0.428 0.185,-0.399C0.156,-0.37 0.141,-0.33 0.141,-0.281L0.141,0L0.08,0L0.08,-0.485L0.14,-0.485L0.14,-0.402C0.155,-0.433 0.178,-0.456 0.206,-0.472C0.235,-0.489 0.269,-0.497 0.307,-0.497Z" style="fill:rgb(52,58,64);fill-rule:nonzero;"/>
            </g>
            <g transform="matrix(23.3463,0,0,40,414.702,162.523)">
                <path d="M0.238,0.007C0.161,0.007 0.099,-0.015 0.05,-0.058L0.073,-0.105C0.099,-0.084 0.125,-0.069 0.151,-0.059C0.177,-0.051 0.207,-0.046 0.241,-0.046C0.28,-0.046 0.311,-0.053 0.332,-0.067C0.353,-0.081 0.363,-0.101 0.363,-0.126C0.363,-0.147 0.356,-0.165 0.342,-0.178C0.328,-0.191 0.306,-0.2 0.275,-0.207L0.193,-0.226C0.154,-0.235 0.123,-0.252 0.101,-0.275C0.078,-0.298 0.067,-0.325 0.067,-0.356C0.067,-0.398 0.083,-0.432 0.116,-0.458C0.149,-0.484 0.192,-0.497 0.247,-0.497C0.281,-0.497 0.313,-0.492 0.343,-0.481C0.372,-0.469 0.397,-0.454 0.416,-0.433L0.393,-0.386C0.37,-0.406 0.347,-0.421 0.324,-0.43C0.3,-0.439 0.274,-0.444 0.247,-0.444C0.21,-0.444 0.182,-0.437 0.161,-0.422C0.14,-0.407 0.13,-0.387 0.13,-0.361C0.13,-0.34 0.137,-0.322 0.15,-0.309C0.163,-0.296 0.183,-0.286 0.21,-0.279L0.293,-0.259C0.381,-0.239 0.425,-0.196 0.425,-0.129C0.425,-0.088 0.408,-0.055 0.375,-0.03C0.341,-0.005 0.295,0.007 0.238,0.007Z" style="fill:rgb(52,58,64);fill-rule:nonzero;"/>
            </g>
        </g>
    </g>
</svg>
